<?xml version="1.0" standalone="no"?>
<!DOCTYPE svg PUBLIC "-//W3C//DTD SVG 20010904//EN"
 "http://www.w3.org/TR/2001/REC-SVG-20010904/DTD/svg10.dtd">
<svg version="1.0" xmlns="http://www.w3.org/2000/svg"
 width="2500.000000pt" height="2500.000000pt" viewBox="0 0 2500.000000 2500.000000"
 preserveAspectRatio="xMidYMid meet">
<metadata>
Created by potrace 1.14, written by Peter Selinger 2001-2017
</metadata>
<g transform="translate(0.000000,2500.000000) scale(0.100000,-0.100000)"
fill="#000000" stroke="none">
<path d="M0 12500 l0 -12500 12500 0 12500 0 0 12500 0 12500 -12500 0 -12500
0 0 -12500z m6640 10995 l0 -95 -557 -2 -558 -3 0 -3705 0 -3705 570 1 c1246
3 1639 64 2013 311 252 167 483 481 585 798 88 272 154 717 192 1290 9 132 18
264 21 293 l5 52 95 0 c58 0 94 -4 94 -10 0 -36 -110 -2726 -116 -2817 l-6
-113 -2789 0 -2789 0 0 95 0 95 438 2 437 3 0 3705 0 3705 -437 3 -438 2 0 95
0 95 1620 0 1620 0 0 -95z m9140 85 c1167 -50 1842 -243 2169 -620 275 -317
391 -639 391 -1083 0 -841 -400 -1484 -1117 -1794 -202 -87 -340 -124 -740
-199 -18 -3 -23 -11 -23 -33 l0 -28 168 -6 c539 -19 935 -151 1172 -389 264
-267 418 -778 460 -1528 5 -96 10 -389 10 -651 0 -630 15 -814 78 -939 40 -79
87 -113 166 -118 81 -5 136 18 211 89 150 142 286 418 370 755 l28 110 106
-23 c58 -14 107 -25 108 -26 5 -6 -59 -253 -92 -356 -168 -520 -424 -834 -803
-985 -186 -74 -468 -105 -647 -71 -365 69 -628 358 -736 811 -48 203 -51 253
-59 994 -5 404 -13 748 -19 805 -59 518 -183 829 -423 1060 -215 208 -445 309
-843 372 -79 12 -217 17 -672 20 l-573 5 0 -1886 0 -1886 495 0 495 0 0 -95 0
-95 -1560 0 -1560 0 0 95 0 95 440 0 440 0 0 3710 0 3710 -440 0 -440 0 0 95
0 95 1603 0 c909 0 1704 -4 1837 -10z m-5006 -6530 c121 -31 208 -82 307 -180
96 -95 144 -172 181 -290 19 -63 23 -96 23 -215 0 -128 -3 -148 -29 -229 -72
-218 -248 -382 -476 -443 -81 -22 -299 -24 -380 -5 -91 23 -232 96 -296 154
-78 72 -145 177 -180 284 -27 82 -29 100 -29 239 0 160 16 238 70 345 83 164
245 292 429 340 100 27 277 27 380 0z m10317 -16 c369 -130 557 -534 425 -914
-48 -139 -142 -259 -265 -338 -195 -127 -476 -147 -703 -52 -169 70 -293 204
-352 380 -106 318 -8 659 240 836 132 95 241 125 434 121 120 -3 144 -7 221
-33z m2379 -4469 l0 -65 -10970 0 -10970 0 0 65 0 65 10970 0 10970 0 0 -65z
m-17275 -2805 c452 -30 814 -94 1157 -206 774 -251 1341 -707 1708 -1374 261
-474 420 -1086 470 -1810 13 -186 13 -733 0 -920 -97 -1415 -604 -2401 -1515
-2947 -405 -243 -928 -410 -1515 -482 -363 -45 -327 -44 -2172 -48 l-1778 -4
0 96 0 95 435 0 435 0 0 3710 0 3710 -435 0 -435 0 0 95 0 95 1748 0 c1043 0
1807 -4 1897 -10z m10125 -1240 l0 -1250 -95 0 c-52 0 -95 1 -96 3 0 1 -4 117
-9 257 -17 493 -63 811 -157 1105 -163 506 -450 731 -1093 854 -374 72 -699
90 -1587 91 l-613 0 0 -1725 0 -1725 313 0 c729 0 1023 42 1302 183 157 79
263 184 347 344 108 207 165 473 183 871 l7 142 99 0 99 0 0 -1650 0 -1650
-99 0 -99 0 -6 148 c-18 382 -76 663 -178 866 -148 294 -415 456 -867 527
-121 19 -189 22 -618 26 l-483 5 0 -1891 0 -1891 573 0 c1496 1 1980 67 2369
323 267 176 469 442 583 768 88 251 161 757 202 1392 l17 267 97 0 96 0 -4
-72 c-7 -137 -113 -2773 -113 -2821 l0 -47 -2970 0 -2970 0 0 95 0 95 435 0
435 0 0 3710 0 3710 -435 0 -435 0 0 95 0 95 2885 0 2885 0 0 -1250z m3310
1155 l0 -95 -441 0 -441 0 5 -27 c3 -16 407 -1406 896 -3091 490 -1684 891
-3065 891 -3067 0 -3 18 -5 40 -5 22 0 40 2 40 4 0 3 369 1077 821 2388 460
1336 831 2428 844 2486 51 225 58 523 16 685 -66 251 -239 424 -506 506 -229
71 -706 121 -1152 121 l-163 0 0 95 0 95 1780 0 1780 0 0 -93 0 -94 -147 -12
c-320 -26 -547 -108 -742 -271 -215 -179 -454 -587 -621 -1063 -16 -45 -479
-1385 -1030 -2977 -550 -1592 -1015 -2933 -1032 -2980 -101 -278 -208 -421
-370 -495 -73 -33 -186 -57 -257 -53 l-55 3 -1211 3920 -1211 3920 -427 3
-427 2 0 95 0 95 1560 0 1560 0 0 -95z"/>
<path d="M14470 21670 l0 -1730 428 0 c560 0 773 13 1018 60 314 61 523 159
684 320 242 242 359 606 391 1214 25 462 -27 897 -136 1163 -100 241 -231 381
-457 488 -331 157 -758 215 -1579 215 l-349 0 0 -1730z"/>
<path d="M4670 5871 l0 -3711 418 0 c747 0 1082 37 1455 161 512 170 858 459
1086 908 290 570 403 1119 442 2151 12 325 7 926 -11 1210 -51 811 -179 1385
-424 1905 -270 569 -720 905 -1384 1030 -222 42 -311 47 -954 52 l-628 5 0
-3711z"/>
</g>
</svg>
